<?xml version="1.0" encoding="utf-8"?><svg version="1.1" id="Layer_1" xmlns="http://www.w3.org/2000/svg" xmlns:xlink="http://www.w3.org/1999/xlink" x="0px" y="0px" viewBox="0 0 114.98 122.88" style="enable-background:new 0 0 114.98 122.88" xml:space="preserve"><style type="text/css"><![CDATA[
	.st0{fill-rule:evenodd;clip-rule:evenodd;fill:#F4BB2C;}
	.st1{fill:#393939;}
]]></style><g><path class="st1" d="M56.76,3.84c0.03-1.09,0.49-2.06,1.22-2.75c0.71-0.68,1.69-1.09,2.75-1.08V0c0.09,0,0.18,0.01,0.27,0.02 c0.99,0.08,1.88,0.53,2.52,1.2c0.68,0.71,1.09,1.68,1.08,2.75h0.01c0,0.07,0,0.14-0.01,0.2l-0.21,8.37h0.01 c0,0.09-0.01,0.18-0.02,0.27c-0.08,1-0.53,1.88-1.2,2.52c-0.72,0.68-1.69,1.09-2.75,1.08v0.01c-0.09,0-0.18-0.01-0.27-0.02 c-1-0.08-1.88-0.53-2.52-1.2c-0.68-0.72-1.09-1.69-1.08-2.75h-0.01c0-0.07,0-0.14,0.01-0.2L56.76,3.84L56.76,3.84L56.76,3.84 L56.76,3.84L56.76,3.84z M68.72,116.34c-1.22,2.09-2.9,3.72-4.82,4.83c-1.71,1-3.62,1.57-5.53,1.69c-1.94,0.12-3.9-0.25-5.69-1.11 c-1.22-0.6-2.36-1.43-3.37-2.51L68.72,116.34L68.72,116.34L68.72,116.34L68.72,116.34L68.72,116.34z M71.41,95.83l-0.63,2.95 l-0.16,2.1l-25.33,3.77c-0.09-1.51-0.33-3.14-0.71-4.83L71.41,95.83L71.41,95.83L71.41,95.83L71.41,95.83L71.41,95.83z M70.57,105.48l0.02,1.27l0.03,0.44c0.07,0.83,0.08,1.67,0.03,2.5l-0.38,1.83l-23.52,3.5l-0.41-0.94l-0.92-3.76l-0.02-1.09 L70.57,105.48L70.57,105.48L70.57,105.48L70.57,105.48L70.57,105.48z M14.26,18.5c-0.79-0.74-1.21-1.73-1.25-2.73 s0.31-2.02,1.04-2.81c0.74-0.79,1.73-1.21,2.73-1.25c1-0.04,2.02,0.31,2.81,1.04l6.28,5.85c0.79,0.74,1.21,1.73,1.25,2.73 c0.04,1.01-0.31,2.02-1.04,2.81c-0.74,0.79-1.73,1.21-2.73,1.25c-1.01,0.04-2.02-0.31-2.81-1.04L14.26,18.5L14.26,18.5L14.26,18.5 L14.26,18.5L14.26,18.5z M3.99,61.66c-1.06,0.02-2.03-0.39-2.75-1.06c-0.73-0.69-1.2-1.65-1.24-2.74 c-0.04-1.08,0.37-2.08,1.06-2.81s1.65-1.2,2.74-1.23l8.57-0.29c1.08-0.04,2.08,0.37,2.81,1.06c0.73,0.69,1.2,1.65,1.23,2.74v0.06 h0.01l-0.01,0.14c-0.02,1.01-0.42,1.92-1.06,2.61c-0.69,0.73-1.65,1.19-2.74,1.23h-0.06v0.01h-0.09L3.99,61.66L3.99,61.66 L3.99,61.66L3.99,61.66L3.99,61.66z M110.69,49.51l0.13-0.01c1.02-0.06,1.97,0.27,2.71,0.87c0.78,0.63,1.31,1.57,1.43,2.64v0.04 c0.01,0,0.01,0.11,0.01,0.13c0.06,1.02-0.27,1.97-0.87,2.71c-0.63,0.78-1.57,1.31-2.64,1.43l-8.53,0.9 c-1.08,0.11-2.1-0.23-2.87-0.86c-0.78-0.63-1.32-1.57-1.43-2.64s0.23-2.1,0.86-2.87c0.63-0.78,1.57-1.32,2.64-1.43 C104.98,50.11,107.83,49.78,110.69,49.51L110.69,49.51z M96.29,13.72c0.98-0.19,2.03-0.01,2.94,0.59l0.01,0.01 c0.9,0.6,1.47,1.51,1.66,2.49c0.19,0.98,0.01,2.03-0.59,2.94l-4.77,7.13c-0.6,0.9-1.51,1.47-2.5,1.67 c-0.98,0.19-2.03,0.01-2.94-0.59c-0.9-0.6-1.47-1.52-1.67-2.5c-0.19-0.98-0.01-2.03,0.59-2.94l4.78-7.14l0,0 C94.39,14.52,95.27,13.93,96.29,13.72L96.29,13.72z"/><path class="st0" d="M75.24,28.03c5.81,3.44,10.59,8.54,13.22,14.98c1.42,3.49,2.38,7.38,2.5,11.64c0.12,4.25-0.61,8.83-2.57,13.67 c-3,7.43-10.01,15.39-14.6,22.7c-0.25-0.05-0.51-0.06-0.77-0.02c-9.89,1.47-19.78,2.94-29.67,4.41c-1.63-4.85-4.13-9.69-6.98-12.95 c-2.88-3.29-5.86-6.71-8.22-11.74c-2.31-4.96-3.59-10.08-3.55-15.4c0.05-5.32,1.4-10.8,4.34-16.46c0.02-0.04,0.04-0.07,0.06-0.11 c3.85-6.52,9.24-10.88,15.24-13.32c5.03-2.06,10.5-2.76,15.86-2.27C65.44,23.65,70.67,25.33,75.24,28.03L75.24,28.03z M54.99,60.17 l-11.77-1.11l9.76-21.37h13.34l-7.56,12.26l13.61,1.51L47.38,81.45L54.99,60.17L54.99,60.17z"/></g></svg>